Coordinates
version=1
nRows=38
nColumns=12
inDegrees=yes

Units are S.I. units (second, meters, Newtons, ...)
Angles are in degrees

endheader
time	SC_y	SC_z	SC_x	AC_y	AC_z	AC_x	GH_y	GH_z	GH_yy	EL_x	PS_y
       0.0              -43.98          15.26          63.15          55.06          3.686          4.342          141.6           56.4          98.23          70.25          141.6
   0.02408              -43.98          15.27          63.15          55.06          3.685           4.34          141.6          56.41          98.22          70.25          141.6
   0.04816              -43.97          15.27          63.15          55.06          3.683          4.339          141.6          56.41          98.22          70.25          141.6
   0.07224              -43.97          15.27          63.15          55.06          3.682          4.338          141.6          56.41          98.21          70.25          141.6
   0.09632              -43.97          15.27          63.15          55.06           3.68          4.337          141.6          56.41           98.2          70.25          141.5
    0.1204              -43.97          15.27          63.14          55.07          3.678          4.335          141.6          56.41          98.19          70.25          141.5
    0.1445              -43.97          15.28          63.14          55.07          3.676          4.334          141.5          56.41          98.18          70.25          141.5
    0.1686              -43.97          15.28          63.14          55.07          3.674          4.332          141.5          56.41          98.17          70.25          141.5
    0.1926              -43.96          15.28          63.14          55.07          3.672           4.33          141.5          56.41          98.16          70.25          141.5
    0.2167              -43.96          15.28          63.13          55.08           3.67          4.328          141.5          56.42          98.15          70.26          141.4
    0.2408              -43.96          15.29          63.13          55.08          3.667          4.326          141.4          56.42          98.13          70.26          141.4
    0.2649              -43.96          15.29          63.13          55.08          3.664          4.324          141.4          56.42          98.12          70.26          141.4
     0.289              -43.95          15.29          63.12          55.09          3.661          4.322          141.4          56.42           98.1          70.26          141.3
     0.313              -43.95           15.3          63.12          55.09          3.658          4.319          141.4          56.42          98.09          70.26          141.3
    0.3371              -43.95           15.3          63.12           55.1          3.655          4.317          141.3          56.43          98.07          70.26          141.3
    0.3612              -43.94           15.3          63.11           55.1          3.651          4.314          141.3          56.43          98.05          70.27          141.2
    0.3853              -43.94          15.31          63.11          55.11          3.647          4.311          141.2          56.43          98.03          70.27          141.2
    0.4094              -43.93          15.31           63.1          55.11          3.643          4.307          141.2          56.44          98.01          70.27          141.1
    0.4334              -43.93          15.32           63.1          55.12          3.638          4.303          141.1          56.44          97.98          70.27          141.1
    0.4575              -43.92          15.32          63.09          55.13          3.632          4.299          141.1          56.44          97.95          70.28          141.0
    0.4816              -43.92          15.33          63.09          55.13          3.627          4.294          141.0          56.45          97.92          70.28          141.0
    0.5057              -43.91          15.34          63.08          55.14           3.62          4.289          141.0          56.45          97.89          70.28          140.9
    0.5297               -43.9          15.34          63.07          55.15          3.613          4.284          140.9          56.46          97.85          70.29          140.8
    0.5538               -43.9          15.35          63.06          55.16          3.605          4.277          140.8          56.46          97.81          70.29          140.8
    0.5779              -43.89          15.36          63.05          55.17          3.596          4.271          140.7          56.47          97.77           70.3          140.7
     0.602              -43.88          15.37          63.04          55.19          3.587          4.263          140.6          56.48          97.72           70.3          140.6
    0.6261              -43.87          15.39          63.03           55.2          3.576          4.254          140.5          56.48          97.66          70.31          140.4
    0.6501              -43.85           15.4          63.01          55.22          3.564          4.245          140.4          56.49           97.6          70.31          140.3
    0.6742              -43.84          15.41           63.0          55.23           3.55          4.234          140.3           56.5          97.53          70.32          140.2
    0.6983              -43.82          15.43          62.98          55.25          3.534          4.221          140.1          56.51          97.45          70.33          140.0
    0.7224              -43.81          15.45          62.96          55.28          3.516          4.207          139.9          56.53          97.36          70.34          139.8
    0.7465              -43.78          15.47          62.94          55.31          3.495          4.191          139.7          56.54          97.25          70.35          139.6
    0.7705              -43.76           15.5          62.91          55.34          3.471          4.172          139.5          56.56          97.13          70.36          139.4
    0.7946              -43.73          15.53          62.88          55.37          3.444           4.15          139.2          56.58          96.99          70.38          139.1
    0.8187               -43.7          15.56          62.84          55.41          3.411          4.124          138.9           56.6          96.82           70.4          138.7
    0.8428              -43.66          15.61           62.8          55.46          3.373          4.094          138.5          56.63          96.62          70.42          138.3
    0.8669              -43.62          15.66          62.75          55.52          3.328          4.058          138.1          56.66          96.39          70.44          137.9
    0.8909              -43.56          15.72          62.69          55.59          3.273          4.015          137.5           56.7          96.11          70.47          137.3
